<svg xmlns="http://www.w3.org/2000/svg" width="680" height="280" viewBox="0 0 680 280">
  <defs><marker id="arrow" viewBox="0 0 10 10" refX="8" refY="5" markerWidth="6" markerHeight="6" orient="auto-start-reverse"><path d="M2 1L8 5L2 9" fill="none" stroke="#7eb8f7" stroke-width="1.5"/></marker></defs>
  <rect x="40" y="100" width="130" height="56" rx="8" fill="#0d2137" stroke="#7eb8f7" stroke-width="1"/>
  <text font-family="Arial" font-size="13" font-weight="bold" fill="#7eb8f7" x="105" y="124" text-anchor="middle">Пользователь</text>
  <text font-family="Arial" font-size="11" fill="#a0c8f0" x="105" y="142" text-anchor="middle">Telegram-клиент</text>
  <rect x="220" y="100" width="130" height="56" rx="8" fill="#0d2137" stroke="#7eb8f7" stroke-width="1"/>
  <text font-family="Arial" font-size="13" font-weight="bold" fill="#7eb8f7" x="285" y="124" text-anchor="middle">Telegram API</text>
  <text font-family="Arial" font-size="11" fill="#a0c8f0" x="285" y="142" text-anchor="middle">Сервер Telegram</text>
  <rect x="400" y="80" width="140" height="96" rx="8" fill="#0d2137" stroke="#7eb8f7" stroke-width="1"/>
  <text font-family="Arial" font-size="13" font-weight="bold" fill="#7eb8f7" x="470" y="108" text-anchor="middle">Python-бот</text>
  <text font-family="Arial" font-size="11" fill="#a0c8f0" x="470" y="126" text-anchor="middle">Обработка команд</text>
  <text font-family="Arial" font-size="11" fill="#a0c8f0" x="470" y="144" text-anchor="middle">python-telegram-bot</text>
  <line x1="172" y1="128" x2="218" y2="128" stroke="#7eb8f7" stroke-width="1.5" marker-end="url(#arrow)"/>
  <text font-family="Arial" font-size="11" fill="#a0c8f0" x="195" y="120" text-anchor="middle">запрос</text>
  <line x1="352" y1="128" x2="398" y2="128" stroke="#7eb8f7" stroke-width="1.5" marker-end="url(#arrow)"/>
  <text font-family="Arial" font-size="11" fill="#a0c8f0" x="375" y="120" text-anchor="middle">webhook</text>
  <path d="M400 160 L285 190 L285 158" fill="none" stroke="#7eb8f7" stroke-width="1.5" marker-end="url(#arrow)"/>
  <path d="M218 158 L105 185 L105 158" fill="none" stroke="#7eb8f7" stroke-width="1.5" marker-end="url(#arrow)"/>
  <text font-family="Arial" font-size="11" fill="#a0c8f0" x="340" y="210" text-anchor="middle">ответ</text>
  <text font-family="Arial" font-size="11" fill="#a0c8f0" x="155" y="205" text-anchor="middle">сообщение</text>
</svg>
